<?xml version="1.0" encoding="utf-8"?>
<!-- Generator: Adobe Illustrator 26.0.1, SVG Export Plug-In . SVG Version: 6.00 Build 0)  -->
<svg version="1.1" id="Capa_1" xmlns="http://www.w3.org/2000/svg" xmlns:xlink="http://www.w3.org/1999/xlink" x="0px" y="0px"
	 viewBox="0 0 20 20" style="enable-background:new 0 0 20 20;" xml:space="preserve">
<style type="text/css">
	.st0{fill:#239C97;}
	.st1{fill:#D26D5B;}
</style>
<g>
	<path class="st0" d="M7.45,2.11c1.5,0.53,1.53,1.71,1.51,2.99c-0.03,3.56-0.03,7.12-0.01,10.68c0.01,1.06-0.27,1.87-1.36,2.37
		c0.26,0,0.52,0,0.78,0c1.85,0,3.69,0.01,5.54,0c0.99,0,1.45-0.45,1.48-1.44c0.01-0.53,0-1.06-0.01-1.58c0-0.33,0.13-0.6,0.47-0.6
		c0.3,0,0.58,0.21,0.59,0.54c0.01,0.89,0.14,1.8-0.12,2.67c-0.28,0.96-1.13,1.59-2.22,1.6c-2.82,0.02-5.65,0.03-8.47,0.01
		c-1.29-0.01-2.22-0.95-2.23-2.3C3.4,12.43,3.4,7.81,3.44,3.2c0.01-1.35,0.93-2.21,2.28-2.22c2.8-0.02,5.59-0.02,8.39,0.01
		c1.44,0.01,2.34,0.96,2.37,2.42c0.01,0.61-0.01,1.21,0,1.82c0.01,0.41-0.18,0.7-0.57,0.71c-0.46,0.02-0.5-0.36-0.5-0.73
		c0.01-0.58,0.02-1.16-0.01-1.74c-0.04-0.79-0.46-1.33-1.17-1.34C11.97,2.09,9.71,2.11,7.45,2.11z"/>
	<path class="st1" d="M11.57,9.3C11.1,8.86,10.79,8.59,10.5,8.3c-0.33-0.33-0.34-0.71-0.03-1.06c0.32-0.34,0.72-0.39,1.06-0.08
		c0.87,0.8,1.73,1.63,2.55,2.48c0.34,0.35,0.27,0.79-0.08,1.13c-0.81,0.79-1.63,1.58-2.46,2.35c-0.37,0.35-0.78,0.31-1.12-0.05
		c-0.33-0.35-0.26-0.73,0.04-1.06c0.28-0.3,0.59-0.58,1.02-1.01c-1.71,0-3.22-0.01-4.74,0c-0.61,0-1.17-0.08-1.16-0.84
		C5.61,9.45,6.14,9.29,6.76,9.3C8.29,9.31,9.82,9.3,11.57,9.3z"/>
</g>
</svg>
