<?xml version="1.0" encoding="utf-8"?>
<!-- Generator: Adobe Illustrator 26.0.1, SVG Export Plug-In . SVG Version: 6.00 Build 0)  -->
<svg version="1.1" id="Capa_1" xmlns="http://www.w3.org/2000/svg" xmlns:xlink="http://www.w3.org/1999/xlink" x="0px" y="0px"
	 viewBox="0 0 20 20" style="enable-background:new 0 0 20 20;" xml:space="preserve">
<style type="text/css">
	.st0{fill:#239C97;}
	.st1{fill:#D26D5B;}
</style>
<g>
	<path class="st0" d="M0.99,6.7c0.5,0,1-0.12,1.49,0.04C2.48,9.87,2.45,13,2.47,16.13c0.01,1.17,0.71,1.82,1.9,1.82
		c3.66,0,7.33,0,10.99-0.01c1.56,0,2.18-0.61,2.18-2.16c0-3-0.01-6.01-0.01-9.01c0.5-0.17,1.01-0.08,1.51-0.07
		c0.01,3.26,0.05,6.52,0.01,9.78c-0.02,1.71-1.42,3-3.14,3.01c-3.95,0.02-7.89,0.01-11.84,0c-1.66,0-3.09-1.29-3.12-2.94
		c-0.05-3.21-0.01-6.42-0.01-9.62C0.94,6.85,0.98,6.77,0.99,6.7z"/>
	<path class="st1" d="M6.58,2.27c0,0.3,0.01,0.61,0,0.91C6.55,3.62,6.3,3.89,5.86,3.91C5.41,3.92,5.13,3.62,5.1,3.21
		C5.06,2.53,5.07,1.85,5.12,1.17C5.15,0.73,5.45,0.49,5.9,0.53c0.45,0.04,0.67,0.31,0.68,0.75c0.01,0.33,0,0.66,0,0.99
		C6.59,2.27,6.58,2.27,6.58,2.27z"/>
	<path class="st1" d="M13.45,2.2c0-0.33-0.01-0.66,0-0.99c0.02-0.41,0.24-0.66,0.65-0.7c0.45-0.04,0.76,0.2,0.8,0.63
		c0.06,0.68,0.06,1.36,0.04,2.05c-0.01,0.43-0.28,0.73-0.72,0.73c-0.45,0-0.76-0.26-0.79-0.74c-0.02-0.33,0-0.66,0-0.99
		C13.43,2.2,13.44,2.2,13.45,2.2z"/>
	<path class="st0" d="M9.02,15.37c-0.28,0.01-0.48-0.16-0.66-0.33c-0.7-0.67-1.39-1.35-2.09-2.01c-0.39-0.37-0.51-0.77-0.11-1.19
		c0.38-0.4,0.8-0.39,1.21-0.02c0.23,0.2,0.45,0.41,0.68,0.62c0.97,0.9,0.97,0.9,1.92-0.07c0.87-0.89,1.74-1.78,2.61-2.68
		c0.42-0.44,0.88-0.69,1.37-0.17c0.46,0.48,0.21,0.91-0.19,1.32c-1.33,1.37-2.65,2.75-3.97,4.13C9.59,15.18,9.37,15.39,9.02,15.37z"
		/>
	<path class="st1" d="M19.07,4.71c-0.04-1.17-0.94-2.16-2.1-2.39c-1.2-0.23-1.33-0.13-1.39,1.07c0,0.05,0,0.1,0,0.15
		c-0.07,0.64-0.76,1.24-1.43,1.25c-0.62,0.01-1.25-0.5-1.36-1.12c-0.04-0.25-0.07-0.51-0.05-0.76c0.05-0.55-0.21-0.68-0.72-0.66
		c-1.19,0.03-2.39,0.01-3.59,0.01C7.36,2.28,7.36,2.29,7.32,3.34C7.27,4.42,6.12,5.1,5.18,4.62c-0.7-0.36-0.8-0.98-0.79-1.68
		c0-0.24,0.16-0.56-0.3-0.65c-1.52-0.31-3.21,0-3.16,3.08v1.94h18.11V6.46C19.06,5.88,19.09,5.29,19.07,4.71z"/>
</g>
</svg>
