<?xml version="1.0" encoding="utf-8"?>
<!-- Generator: Adobe Illustrator 26.0.1, SVG Export Plug-In . SVG Version: 6.00 Build 0)  -->
<svg version="1.1" id="Capa_1" xmlns="http://www.w3.org/2000/svg" xmlns:xlink="http://www.w3.org/1999/xlink" x="0px" y="0px"
	 viewBox="0 0 20 20" style="enable-background:new 0 0 20 20;" xml:space="preserve">
<style type="text/css">
	.st0{fill:#239C97;}
	.st1{fill:#D26D5B;}
</style>
<g>
	<path class="st0" d="M1.63,13.91c0-1.36,0-2.73,0-4.09c0-0.26,0.03-0.48-0.36-0.54C0.63,9.18,0.4,8.7,0.47,8.08
		c0.07-0.66,0.52-0.94,1.1-0.98C2.25,7.06,2.93,7.07,3.62,7.1c0.4,0.02,0.5-0.12,0.53-0.52C4.37,3.6,6.94,1.17,9.9,1.14
		c3.01-0.03,5.67,2.33,5.93,5.33c0.05,0.56,0.23,0.66,0.71,0.63c0.59-0.03,1.18-0.01,1.76-0.01c0.64,0,1.1,0.26,1.22,0.93
		c0.12,0.68-0.12,1.05-0.89,1.26c-0.44,0.12-0.31,0.42-0.31,0.66c-0.01,2.49-0.01,4.99-0.01,7.48c0,0.26,0.01,0.52-0.01,0.78
		c-0.06,0.67-0.46,1.09-1.14,1.1c-1.58,0.02-3.15,0-4.73,0.01c-0.41,0-0.53-0.17-0.53-0.55c0.01-1.03,0.01-2.07,0-3.1
		c-0.01-1.05-0.41-1.44-1.45-1.44c-0.35,0-0.71,0-1.06,0c-0.93,0.01-1.32,0.39-1.34,1.33c-0.02,1.01-0.03,2.02,0.01,3.03
		c0.02,0.54-0.12,0.76-0.71,0.74c-1.41-0.04-2.82-0.01-4.23-0.02c-1.06,0-1.48-0.43-1.48-1.51C1.63,16.5,1.63,15.21,1.63,13.91z
		 M9.94,11.62c2.41,0.03,4.47-1.94,4.51-4.29c0.04-2.53-1.9-4.64-4.28-4.67c-2.56-0.04-4.6,1.89-4.63,4.38
		C5.51,9.61,7.41,11.59,9.94,11.62z"/>
	<path class="st1" d="M12.1,7.32h-1.05c-0.23,0-0.42,0.19-0.42,0.42V8.8c0,0.23-0.19,0.42-0.42,0.42H9.85
		c-0.23,0-0.42-0.19-0.42-0.42V7.75c0-0.23-0.19-0.42-0.42-0.42H7.95c-0.23,0-0.42-0.19-0.42-0.42V6.55c0-0.23,0.19-0.42,0.42-0.42
		H9c0.23,0,0.42-0.19,0.42-0.42V4.64c0-0.23,0.19-0.42,0.42-0.42h0.35c0.23,0,0.42,0.19,0.42,0.42V5.7c0,0.23,0.19,0.42,0.42,0.42
		h1.05c0.23,0,0.42,0.19,0.42,0.42V6.9C12.53,7.13,12.34,7.32,12.1,7.32z"/>
</g>
</svg>
