<?xml version="1.0" encoding="utf-8"?>
<!-- Generator: Adobe Illustrator 26.0.1, SVG Export Plug-In . SVG Version: 6.00 Build 0)  -->
<svg version="1.1" id="Capa_1" xmlns="http://www.w3.org/2000/svg" xmlns:xlink="http://www.w3.org/1999/xlink" x="0px" y="0px"
	 viewBox="0 0 20 20" style="enable-background:new 0 0 20 20;" xml:space="preserve">
<style type="text/css">
	.st0{fill:#239C97;}
</style>
<g>
	<path class="st0" d="M10.23,12.87c-0.08,0.11-0.08,0.11-0.16,0c-0.24-0.33-0.55-0.54-0.99-0.55c-0.63-0.01-1.13,0.66-1.02,1.27
		c0.21,0.94,1.11,1.58,1.86,2.09c0.57,0.27,1.71-1.01,2.04-1.45c0.21-0.3,0.32-0.63,0.27-1C12.11,12.2,10.73,12.03,10.23,12.87z"/>
	<path class="st0" d="M19.58,5.16c-0.02-2.57-2.03-4.53-4.6-4.53c-3.29-0.01-6.57-0.01-9.86,0C2.4,0.63,0.4,2.65,0.4,5.39
		c0,3.1,0,6.21,0,9.31c0,2.72,1.96,4.67,4.7,4.67c1.64,0,3.29,0,4.93,0c1.67,0,3.34,0.01,5.01,0c2.52-0.01,4.54-1.98,4.56-4.51
		C19.62,11.63,19.61,8.39,19.58,5.16z M8.84,2.46c2.13-0.47,4.22,0.56,3.47,2.89c-0.41,1.27-1.29,3.45-2.57,2.9
		c-0.7-0.3-1-0.65-1.49-1.21C6.43,4.97,6.58,3.22,8.84,2.46z M3.32,10.7c-0.23-0.42-0.31-0.88-0.32-1.35
		c-0.02-0.89,0.22-1.72,0.64-2.5c0.24-0.45,0.55-0.87,0.95-1.19C4.93,5.38,5.31,5.2,5.76,5.22c0.39,0.02,0.71,0.19,0.98,0.45
		c0.43,0.4,0.81,0.85,1.12,1.35c0.21,0.34,0.4,0.7,0.51,1.1C8.53,8.69,8.39,9.18,8,9.61c-0.27,0.3-0.58,0.54-0.91,0.77
		c-0.5,0.36-1.02,0.68-1.56,0.97c-0.2,0.11-0.42,0.19-0.65,0.22c-0.03,0-0.06,0-0.08,0.01c-0.03,0-0.05,0-0.08,0
		c-0.03,0-0.07,0-0.1,0C4.01,11.56,3.61,11.21,3.32,10.7z M15.33,15.08C15.33,15.09,15.33,15.09,15.33,15.08
		C15.33,15.09,15.33,15.09,15.33,15.08C15.33,15.09,15.33,15.08,15.33,15.08c0-0.01,0-0.03,0.02-0.02c0,0,0,0,0.01,0.01
		C15.35,15.08,15.34,15.08,15.33,15.08z M12.74,17.15c-2.73,1.12-7.01,0.41-8.11-2.63c-0.33-2.12,2.04-2.79,3.29-3.98
		c0.53-0.52,1.01-1.17,1.8-1.27c1.64-0.23,2.44,1.62,3.79,2.23c0.87,0.49,1.79,1.15,1.97,2.19C15.81,15.4,14.15,16.6,12.74,17.15z
		 M16.86,10.24c-0.05,0.19-0.12,0.37-0.23,0.54c-0.03,0.04-0.06,0.08-0.09,0.13c-0.27,0.4-0.63,0.64-1.12,0.66
		c-0.31,0.01-0.59-0.1-0.85-0.27c-0.71-0.47-1.44-0.93-2.13-1.44c-0.37-0.28-0.71-0.57-0.85-1.04c0-0.01-0.01-0.02-0.01-0.03
		c0,0,0-0.01-0.01-0.01c0,0,0,0,0-0.01c-0.06-0.38,0.02-0.74,0.14-1.08c0.34-0.92,0.95-1.64,1.74-2.21c0.58-0.42,1.22-0.4,1.82,0.01
		c0.45,0.3,0.78,0.72,1.05,1.18c0.18,0.31,0.32,0.64,0.43,0.98c0.08,0.26,0.15,0.52,0.19,0.79c0.02,0.16,0.02,0.32,0.04,0.48
		C17.04,9.36,16.98,9.8,16.86,10.24z"/>
</g>
</svg>
