<?xml version="1.0" encoding="utf-8"?>
<!-- Generator: Adobe Illustrator 26.0.1, SVG Export Plug-In . SVG Version: 6.00 Build 0)  -->
<svg version="1.1" id="Capa_1" xmlns="http://www.w3.org/2000/svg" xmlns:xlink="http://www.w3.org/1999/xlink" x="0px" y="0px"
	 viewBox="0 0 20 20" style="enable-background:new 0 0 20 20;" xml:space="preserve">
<style type="text/css">
	.st0{fill:#D26D5B;}
	.st1{fill:#239C97;}
</style>
<g>
	<path class="st0" d="M9.93,19.38c-1.56,0-3.11,0.01-4.67,0c-1.4-0.01-2.35-0.93-2.37-2.33c-0.02-1.77,0.01-3.54,0-5.32
		c0-0.39,0.12-0.67,0.41-0.94c1.98-1.84,3.94-3.7,5.92-5.55c0.72-0.67,0.76-0.68,1.46-0.03c1.98,1.84,3.94,3.7,5.93,5.54
		c0.29,0.27,0.4,0.55,0.4,0.94c-0.02,1.75,0.01,3.5-0.01,5.24c-0.01,1.56-0.91,2.44-2.47,2.44C13,19.38,11.46,19.38,9.93,19.38z
		 M13.64,12.64c0-0.98-0.43-1.71-1.2-2.02c-0.72-0.3-1.54-0.18-2.04,0.42c-0.35,0.42-0.52,0.43-0.89,0.03
		c-0.55-0.59-1.25-0.77-2.03-0.44c-0.78,0.34-1.17,0.94-1.21,1.79c-0.03,0.77,0.17,1.47,0.62,2.09c0.7,0.98,1.67,1.63,2.7,2.2
		c0.23,0.12,0.44,0.14,0.67-0.02c0.92-0.65,1.9-1.21,2.63-2.1C13.36,14.04,13.67,13.4,13.64,12.64z"/>
	<path class="st1" d="M19.35,9.32c-0.02,0.44-0.22,0.77-0.62,0.98c-0.43,0.22-0.85,0.16-1.2-0.15c-0.86-0.76-1.71-1.53-2.56-2.31
		c-1.41-1.29-2.81-2.6-4.22-3.9c-0.71-0.65-0.83-0.65-1.54,0.01C7.07,5.94,4.93,7.92,2.79,9.91c-0.3,0.28-0.62,0.55-1.07,0.5
		c-0.46-0.05-0.83-0.27-0.99-0.72c-0.18-0.5-0.04-0.95,0.33-1.32c0.51-0.5,1.05-0.98,1.57-1.47C4.6,5.05,6.57,3.19,8.54,1.34
		c1-0.94,1.81-0.97,2.82-0.03c2.5,2.31,4.98,4.63,7.47,6.94C19.14,8.54,19.3,8.9,19.35,9.32z"/>
</g>
</svg>
