<?xml version="1.0" encoding="utf-8"?>
<!-- Generator: Adobe Illustrator 26.0.1, SVG Export Plug-In . SVG Version: 6.00 Build 0)  -->
<svg version="1.1" id="Capa_1" xmlns="http://www.w3.org/2000/svg" xmlns:xlink="http://www.w3.org/1999/xlink" x="0px" y="0px"
	 viewBox="0 0 20 20" style="enable-background:new 0 0 20 20;" xml:space="preserve">
<style type="text/css">
	.st0{fill:#239C97;}
	.st1{fill:#D26D5B;}
</style>
<g>
	<path class="st0" d="M13.05,6.91c-0.25-0.46-0.19-0.85-0.12-1.24c0.39-2.28-0.61-3.74-2.72-3.97C7.82,1.44,6.09,2.8,6,5.07
		C5.97,5.81,6.08,6.55,6.11,7.29c0.03,0.72-0.05,1.43-0.35,2.1c-0.42,0.92-1.18,1.42-2.08,1.39c-0.82-0.03-1.6-0.72-1.93-1.61
		C0.98,7.11,1.61,5.4,2.98,3.85c1.82-2.06,4.06-3.17,6.85-3.03c0.34,0.02,0.7,0.05,1.02,0.16c1.12,0.37,2.18,0.92,3.17,1.54
		c1.17,0.73,1.72,2.38,1.36,3.5c-0.15,0.45-0.31,0.76-0.88,0.42C13.94,6.11,13.47,6.44,13.05,6.91z"/>
	<path class="st0" d="M2.13,11.58c0.16-0.29,0.28-0.44,0.67-0.26c1.2,0.54,2.4,0.19,3.18-0.92c0.26-0.36,0.4-0.48,0.77-0.15
		c0.64,0.58,1.42,0.88,2.27,1.01c0.34,0.05,0.46,0.11,0.32,0.51c-0.19,0.54-0.15,1.12,0.02,1.67c0.11,0.33,0.14,0.68,0.06,1.02
		c-0.07,0.28-0.17,0.46-0.55,0.44c-1.04-0.06-1.68,0.58-1.72,1.64c-0.02,0.57,0.14,1.12,0.25,1.68c0.14,0.73-0.07,0.94-0.77,0.73
		c-2.05-0.63-3.68-1.49-4.69-3.61C1.7,14.83,1.36,12.45,2.13,11.58z"/>
	<path class="st0" d="M0.83,8.51c0.18,0.68,0.36,1.36,0.8,1.92c0.1,0.12,0.13,0.26,0.07,0.41c-0.25,0.58-0.5,1.15-0.8,1.85
		C0.44,11.21,0.45,9.87,0.83,8.51z"/>
	<ellipse class="st0" cx="7.96" cy="5.93" rx="0.56" ry="0.8"/>
	<ellipse transform="matrix(0.9919 -0.1273 0.1273 0.9919 -0.9385 1.3378)" class="st0" cx="10" cy="8.01" rx="0.8" ry="0.56"/>
	<ellipse class="st0" cx="11.31" cy="5.8" rx="0.56" ry="0.8"/>
	<path class="st1" d="M18.58,11.2c-0.05-0.02-0.09-0.11-0.12-0.18c-0.5-0.89-1.14-1.74-0.87-2.86c0.03-0.12,0.01-0.25-0.01-0.37
		c-0.09-0.54-0.39-0.68-0.82-0.35c-0.37,0.28-0.69,0.63-1.04,0.94c-0.33,0.29-0.61,0.28-0.8-0.17c-0.08-0.18-0.16-0.36-0.25-0.54
		c-0.12-0.24-0.21-0.54-0.53-0.56c-0.35-0.03-0.47,0.28-0.54,0.52c-0.3,1.15-1.08,1.93-1.92,2.69c-0.29,0.26-1.1,1.16-0.95,2.01
		c0.11,1.54,1.21,2.73,2.87,3.14c0.75,0.18,1.51,0.14,2.47,0.15c-0.4,0.34-0.69,0.44-1.01,0.48c-1.07,0.17-2.1-0.02-2.96-0.65
		c-0.64-0.47-0.94-0.22-1.29,0.27c-0.11,0.16-0.24,0.31-0.34,0.48c-0.37,0.66-0.69,1.36-0.28,2.1c0.43,0.76,1.2,0.88,1.99,0.87
		c3.17-0.03,6.57-2.85,7.15-5.98C19.46,12.44,19.72,11.55,18.58,11.2z M13.55,11.16c-0.03,0.33-0.25,0.58-0.49,0.57
		c-0.25-0.02-0.42-0.3-0.4-0.63c0.03-0.33,0.25-0.58,0.49-0.57C13.4,10.55,13.58,10.83,13.55,11.16z M14.27,12.88
		c-0.17-0.01-0.44-0.25-0.43-0.41c0.01-0.16,0.23-0.28,0.49-0.26c0.26,0.02,0.46,0.17,0.45,0.33C14.77,12.7,14.44,12.89,14.27,12.88
		z M15.92,12.02c-0.25,0-0.45-0.27-0.45-0.6s0.2-0.6,0.45-0.6c0.25,0,0.45,0.27,0.45,0.6S16.16,12.02,15.92,12.02z"/>
</g>
</svg>
