<?xml version="1.0" encoding="utf-8"?>
<!-- Generator: Adobe Illustrator 26.0.1, SVG Export Plug-In . SVG Version: 6.00 Build 0)  -->
<svg version="1.1" id="Capa_1" xmlns="http://www.w3.org/2000/svg" xmlns:xlink="http://www.w3.org/1999/xlink" x="0px" y="0px"
	 viewBox="0 0 20 20" style="enable-background:new 0 0 20 20;" xml:space="preserve">
<style type="text/css">
	.st0{fill:#D16D5B;}
	.st1{fill:#219B96;}
</style>
<g>
	<path class="st0" d="M16.4,3.8c-1.7,0-3.1,1.4-3.1,3.1c0,1.7,1.4,3.1,3.1,3.1c1.7,0,3.1-1.4,3.1-3.1C19.5,5.2,18.1,3.8,16.4,3.8z
		 M18.4,7.5h-1.1c-0.2,0-0.4,0.2-0.4,0.4V9c0,0.2-0.2,0.4-0.4,0.4h-0.4c-0.2,0-0.4-0.2-0.4-0.4V7.9c0-0.2-0.2-0.4-0.4-0.4h-1.1
		c-0.2,0-0.4-0.2-0.4-0.4V6.7c0-0.2,0.2-0.4,0.4-0.4h1.1c0.2,0,0.4-0.2,0.4-0.4V4.8c0-0.2,0.2-0.4,0.4-0.4h0.4
		c0.2,0,0.4,0.2,0.4,0.4v1.1c0,0.2,0.2,0.4,0.4,0.4h1.1c0.2,0,0.4,0.2,0.4,0.4v0.4C18.9,7.3,18.7,7.5,18.4,7.5z"/>
	<path class="st1" d="M12.7,6.9c0-0.9,0.3-1.7,0.7-2.4c-1.8-1.7-4.4-2.6-7-1.9c-3,0.7-5,2.7-5.7,5.7c-0.7,3,0.2,5.5,2.5,7.5
		c1.6,1.4,3.5,2,5.6,1.7c1.1-0.1,2.1-0.6,3-1.4c0.9,1,2,1.4,3.4,1.4c0.4,0,0.5-0.1,0.5-0.5c0-2.1,0-4.1,0-6.2
		C14,10.4,12.7,8.8,12.7,6.9z M11,10.9c-0.7,0.9-1.7,1.4-2.6,2.1c-0.2,0.2-0.4,0.1-0.7,0c-1-0.6-2-1.2-2.6-2.2
		c-0.4-0.6-0.6-1.3-0.6-2.1C4.6,8,5,7.4,5.7,7.1c0.8-0.3,1.5-0.1,2,0.4c0.4,0.4,0.5,0.4,0.9,0c0.5-0.6,1.3-0.7,2-0.4
		c0.8,0.3,1.2,1,1.2,2C11.8,9.8,11.5,10.4,11,10.9z"/>
</g>
</svg>
