<?xml version="1.0" encoding="utf-8"?>
<!-- Generator: Adobe Illustrator 26.0.1, SVG Export Plug-In . SVG Version: 6.00 Build 0)  -->
<svg version="1.1" id="Capa_1" xmlns="http://www.w3.org/2000/svg" xmlns:xlink="http://www.w3.org/1999/xlink" x="0px" y="0px"
	 viewBox="0 0 20 20" style="enable-background:new 0 0 20 20;" xml:space="preserve">
<style type="text/css">
	.st0{fill:#239C97;}
	.st1{fill:#D26D5B;}
</style>
<g>
	<path class="st0" d="M7.52,0.72c2.38-0.53,4.7,0.62,3.86,3.22c-0.46,1.42-1.44,3.84-2.87,3.23C7.73,6.83,7.4,6.44,6.85,5.82
		C4.84,3.51,5,1.56,7.52,0.72z"/>
	<path class="st1" d="M1.36,9.9C1.1,9.43,1.01,8.91,1,8.39C0.98,7.39,1.24,6.47,1.71,5.61C1.98,5.1,2.32,4.64,2.78,4.28
		c0.38-0.3,0.81-0.51,1.31-0.48c0.43,0.02,0.79,0.22,1.09,0.5c0.48,0.45,0.9,0.95,1.25,1.51C6.67,6.19,6.88,6.59,7,7.03
		c0.17,0.63,0.02,1.18-0.42,1.65c-0.3,0.33-0.65,0.6-1.01,0.86c-0.56,0.4-1.14,0.75-1.74,1.08c-0.23,0.12-0.47,0.21-0.72,0.25
		c-0.03,0-0.06,0-0.09,0.01c-0.03,0-0.06,0-0.09,0c-0.04,0-0.07,0-0.11,0C2.13,10.86,1.68,10.47,1.36,9.9z"/>
	<path class="st1" d="M16.46,9.39c-0.06,0.21-0.14,0.42-0.25,0.6c-0.03,0.05-0.06,0.09-0.1,0.14c-0.3,0.44-0.7,0.72-1.25,0.74
		c-0.35,0.01-0.66-0.11-0.95-0.3c-0.8-0.52-1.6-1.03-2.37-1.6c-0.41-0.31-0.8-0.64-0.95-1.16c0-0.01-0.01-0.02-0.01-0.03
		c0,0-0.01-0.01-0.01-0.01c0,0,0-0.01,0-0.01c-0.07-0.42,0.02-0.82,0.16-1.21c0.38-1.03,1.06-1.83,1.94-2.46
		c0.64-0.47,1.36-0.44,2.02,0.01c0.5,0.34,0.87,0.8,1.17,1.32c0.2,0.35,0.35,0.71,0.48,1.09c0.09,0.29,0.17,0.58,0.21,0.88
		c0.02,0.18,0.03,0.36,0.05,0.53C16.66,8.41,16.59,8.9,16.46,9.39z"/>
	<path class="st0" d="M10.94,15.56c0-1.89,1.4-3.46,3.21-3.73c-0.41-0.42-0.93-0.76-1.44-1.05c-1.5-0.68-2.39-2.74-4.22-2.49
		c-0.88,0.11-1.41,0.84-2,1.42c-1.39,1.33-4.03,2.08-3.67,4.44c1.16,3.2,5.48,4.09,8.52,3.12C11.09,16.76,10.94,16.17,10.94,15.56z"
		/>
	<path class="st1" d="M15.39,12.19c-1.99,0-3.61,1.62-3.61,3.61c0,1.99,1.62,3.61,3.61,3.61c1.99,0,3.61-1.62,3.61-3.61
		C19,13.8,17.38,12.19,15.39,12.19z M17.8,16.49h-1.22c-0.27,0-0.49,0.22-0.49,0.49v1.22c0,0.27-0.22,0.49-0.49,0.49h-0.41
		c-0.27,0-0.49-0.22-0.49-0.49v-1.22c0-0.27-0.22-0.49-0.49-0.49h-1.22c-0.27,0-0.49-0.22-0.49-0.49v-0.41
		c0-0.27,0.22-0.49,0.49-0.49h1.22c0.27,0,0.49-0.22,0.49-0.49v-1.22c0-0.27,0.22-0.49,0.49-0.49h0.41c0.27,0,0.49,0.22,0.49,0.49
		v1.22c0,0.27,0.22,0.49,0.49,0.49h1.22c0.27,0,0.49,0.22,0.49,0.49V16C18.29,16.27,18.07,16.49,17.8,16.49z"/>
</g>
</svg>
