<?xml version="1.0" encoding="utf-8"?>
<!-- Generator: Adobe Illustrator 26.0.1, SVG Export Plug-In . SVG Version: 6.00 Build 0)  -->
<svg version="1.1" id="Capa_1" xmlns="http://www.w3.org/2000/svg" xmlns:xlink="http://www.w3.org/1999/xlink" x="0px" y="0px"
	 viewBox="0 0 20 20" style="enable-background:new 0 0 20 20;" xml:space="preserve">
<style type="text/css">
	.st0{fill:#219B96;}
	.st1{fill:#D16D5B;}
</style>
<g>
	<g>
		<path class="st0" d="M18.7,19.1H1.3l1.7-5h2.4l-2.1,1.6h1.5l-0.7,3.1h7.8l0,0L16,17l-1.2,0l-1.2-2.9h2.6L18.7,19.1z M12.6,18.9
			h5.6l-1-2L12.6,18.9z M1.7,18.9h2.1L4.4,16H2.7L1.7,18.9z M15,16.7l2.2,0L16,14.4h-2L15,16.7z M3.2,14.4l-0.4,1.3l1.7-1.3H3.2z"/>
	</g>
	<path class="st0" d="M9.7,0.9c4.2-0.1,7.6,4.4,5.5,8.8c-1,2.2-2.4,4.3-4,6.2c-0.1,0.1-0.1,0.1-0.2,0.2c-0.9,1-1.8,1-2.7,0
		c-1.3-1.4-2.3-3-3.2-4.6c-0.6-1-1.2-2.1-1.4-3.3C2.9,4.5,5.8,0.9,9.7,0.9z M9.7,2.8C7.4,2.8,5.5,4.7,5.5,7c0,2.3,2,4.2,4.3,4.2
		c2.3,0,4.2-1.9,4.2-4.2C13.9,4.7,12.1,2.8,9.7,2.8z"/>
	<g>
		<path class="st1" d="M9.3,4.5c0.7-0.2,1.4,0.2,1.1,0.9C10.3,5.8,10,6.5,9.5,6.4C9.3,6.3,9.2,6.2,9.1,6C8.5,5.3,8.5,4.7,9.3,4.5z"
			/>
		<path class="st1" d="M7.5,7.2C7.4,7,7.3,6.9,7.3,6.7c0-0.3,0.1-0.6,0.2-0.8c0.1-0.1,0.2-0.3,0.3-0.4C8,5.4,8.1,5.4,8.2,5.4
			c0.1,0,0.2,0.1,0.3,0.1C8.7,5.7,8.8,5.8,8.9,6C9,6.1,9.1,6.2,9.1,6.3c0,0.2,0,0.3-0.1,0.5C8.9,6.9,8.8,7,8.7,7.1
			C8.5,7.2,8.3,7.3,8.2,7.4C8.1,7.4,8,7.4,8,7.4c0,0,0,0,0,0c0,0,0,0,0,0c0,0,0,0,0,0C7.7,7.4,7.5,7.3,7.5,7.2z"/>
		<path class="st1" d="M10.5,9.3C9.6,9.6,8.2,9.4,7.9,8.4C7.8,7.7,8.5,7.5,9,7.1c0.2-0.2,0.3-0.4,0.6-0.4c0.5-0.1,0.8,0.5,1.2,0.7
			c0.3,0.2,0.6,0.4,0.6,0.7C11.5,8.7,11,9.1,10.5,9.3z"/>
		<path class="st1" d="M11.9,7c0,0.1,0,0.1-0.1,0.2c0,0,0,0,0,0c-0.1,0.1-0.2,0.2-0.4,0.2c-0.1,0-0.2,0-0.3-0.1
			c-0.2-0.2-0.5-0.3-0.7-0.5c-0.1-0.1-0.2-0.2-0.3-0.3c0,0,0,0,0,0c0,0,0,0,0,0c0,0,0,0,0,0c0-0.1,0-0.2,0-0.4
			c0.1-0.3,0.3-0.5,0.6-0.7c0.2-0.1,0.4-0.1,0.6,0c0.1,0.1,0.3,0.2,0.3,0.4c0.1,0.1,0.1,0.2,0.1,0.3c0,0.1,0.1,0.2,0.1,0.3
			c0,0.1,0,0.1,0,0.2C11.9,6.7,11.9,6.9,11.9,7z"/>
	</g>
</g>
</svg>
